<svg xmlns="http://www.w3.org/2000/svg" viewBox="0 0 317.19 286.86"><g id="Layer_2" data-name="Layer 2"><g id="Layer_1-2" data-name="Layer 1"><polygon points="204.9 79.4 134.46 79.4 169.53 44.04 204.9 79.4" style="fill:#069a49"/><polygon points="101.2 79.4 89.86 90.84 78.42 79.4 101.2 79.4" style="fill:#069a49"/><polygon points="172.86 209.88 144.53 238.45 115.96 209.88 172.86 209.88" style="fill:#069a49"/><polygon points="104.54 105.53 75.29 105.53 89.86 90.84 104.54 105.53" style="fill:#069a49"/><polygon points="78.42 79.4 14.39 79.4 46.28 47.26 78.42 79.4" style="fill:#069a49"/><polygon points="302.67 209.88 274.47 238.31 246.04 209.88 302.67 209.88" style="fill:#069a49"/><polygon points="108.35 72.19 101.2 79.4 78.42 79.4 46.28 47.26 64.78 28.61 108.35 72.19" style="fill:#069a49"/><polygon points="152.84 27.35 108.35 72.19 64.78 28.61 93.16 0 125.49 0 152.84 27.35" style="fill:#069a49"/><polygon points="274.47 238.31 255.98 256.96 214.39 215.37 219.83 209.88 246.04 209.88 274.47 238.31" style="fill:#069a49"/><polygon points="246.04 209.88 219.83 209.88 232.88 196.72 246.04 209.88" style="fill:#069a49"/><polygon points="179.96 0 152.84 27.35 125.49 0 179.96 0" style="fill:#069a49"/><polygon points="317.19 191.69 317.19 195.25 302.67 209.88 246.04 209.88 232.88 196.72 247.29 182.19 307.69 182.19 317.19 191.69" style="fill:#069a49"/><polygon points="277.37 151.88 247.29 182.19 218.35 182.19 209.3 173.14 253.79 128.3 277.37 151.88" style="fill:#069a49"/><polygon points="307.69 182.19 247.29 182.19 277.37 151.88 307.69 182.19" style="fill:#069a49"/><polygon points="247.29 182.19 232.88 196.72 218.35 182.19 247.29 182.19" style="fill:#069a49"/><polygon points="253.79 128.3 209.3 173.14 141.69 105.53 231.02 105.53 253.79 128.3" style="fill:#069a49"/><polygon points="311.28 70.33 302.29 79.4 204.9 79.4 169.53 44.04 213.22 0 240.94 0 311.28 70.33" style="fill:#069a49"/><polygon points="317.19 76.24 317.19 79.4 302.29 79.4 311.28 70.33 317.19 76.24" style="fill:#069a49"/><polygon points="89.86 90.84 75.29 105.53 11.61 105.53 0 93.92 14.39 79.4 78.42 79.4 89.86 90.84" style="fill:#069a49"/><polygon points="75.29 105.53 43.58 137.5 11.61 105.53 75.29 105.53" style="fill:#069a49"/><polygon points="106.55 107.54 60.27 154.19 43.58 137.5 75.29 105.53 104.54 105.53 106.55 107.54" style="fill:#069a49"/><polygon points="181.21 182.19 88.27 182.19 60.27 154.19 106.55 107.54 181.21 182.19" style="fill:#069a49"/><polygon points="144.53 238.45 96.51 286.86 78.44 286.86 3.26 211.68 5.04 209.88 115.96 209.88 144.53 238.45" style="fill:#069a49"/><polygon points="255.98 256.96 226.32 286.86 192.94 286.86 168.11 262.03 214.39 215.37 255.98 256.96" style="fill:#069a49"/><polygon points="192.94 286.86 143.48 286.86 168.11 262.03 192.94 286.86" style="fill:#069a49"/></g></g></svg>