<svg xmlns="http://www.w3.org/2000/svg" viewBox="0 0 1987.04 350.64"><g id="Layer_2" data-name="Layer 2"><g id="Layer_1-2" data-name="Layer 1"><path d="M413.9,290.23l.34-243h41.17V195.74L522.06,108h50.79l-70.7,91.12,76.78,91.12H525.1l-69.69-87.74v87.74Z" transform="translate(0 -20.59)" style="fill:#ffffff"/><path d="M616.05,290.23,560.36,107.66l39.83.33,35.6,116.94L671.9,108h34.25l36,116.94L777.87,108h39.82L762,290.23H730.28L688.94,164.86,647.77,290.23Z" transform="translate(0 -20.59)" style="fill:#ffffff"/><path d="M832.87,80.32V43h40.67V80.32Zm0,209.91V108h40.67V290.23Z" transform="translate(0 -20.59)" style="fill:#ffffff"/><path d="M984.74,295.3q-28.18,0-48.09-12.58a81.88,81.88,0,0,1-30.46-34.33q-10.55-21.78-10.72-49.28.16-28,11.06-49.69a82.88,82.88,0,0,1,31-34.09q20.09-12.39,47.75-12.4,31.05,0,52.57,15.61t28.09,42.61l-40.5,11q-4.73-14.69-15.69-22.87a40.71,40.71,0,0,0-25-8.18q-15.87,0-26.16,7.51a43.59,43.59,0,0,0-15.18,20.67,85.08,85.08,0,0,0-4.9,29.86q0,26,11.65,42t34.59,16q16.2,0,25.56-7.42t14.09-21.43l41.51,9.28q-8.45,27.84-29.53,42.77T984.74,295.3Z" transform="translate(0 -20.59)" style="fill:#ffffff"/><path d="M1080.91,290.23l.34-243h41.17V195.74L1189.08,108h50.79l-70.7,91.12,76.77,91.12h-53.83l-69.69-87.74v87.74Z" transform="translate(0 -20.59)" style="fill:#ffffff"/><path d="M1311.24,295.3q-33.75,0-54.84-15.19t-25.65-42.69l41.52-6.41a35,35,0,0,0,14.17,21.26q11,7.75,27.67,7.76,14.69,0,22.7-5.82a18.66,18.66,0,0,0,8-16q0-6.24-3-10T1329,220.88q-10-3.54-30.54-8.94-23-6.08-36.45-13.08t-19.4-16.62q-5.91-9.62-5.91-23.29,0-17,8.94-29.7t25-19.48q16-6.84,37.8-6.84,21.25,0,37.71,6.58t26.58,18.73a56.11,56.11,0,0,1,12.48,28.52l-41.51,7.42a26.25,26.25,0,0,0-10.54-18.39q-9-6.75-24-7.59-14.34-.84-23.12,4.3t-8.77,14.43a12.47,12.47,0,0,0,3.54,8.94q3.54,3.72,14.26,7.43t32,9.11q21.76,5.57,34.84,12.74t18.9,17.13q5.82,9.94,5.82,24.13,0,27.5-20,43.19T1311.24,295.3Z" transform="translate(0 -20.59)" style="fill:#ffffff"/><path d="M1437.12,290.23l-55.68-182.57,39.82.33,35.61,116.94L1493,108h34.25l35.94,116.94L1599,108h39.82l-55.69,182.24h-31.72L1510,164.86l-41.17,125.37Z" transform="translate(0 -20.59)" style="fill:#ffffff"/><path d="M1691.41,295.3q-19.74,0-33.41-7.51a51.38,51.38,0,0,1-20.67-20,55.23,55.23,0,0,1-7-27.5,61.09,61.09,0,0,1,4.39-23.71,47.34,47.34,0,0,1,13.5-18.23q9.1-7.66,23.62-12.57a224.88,224.88,0,0,1,25.73-6.41q14.78-2.87,32.06-5.31t36.2-5.32L1751.32,177q.17-18.9-8.44-27.84t-29-8.95a52.65,52.65,0,0,0-23.8,5.74q-11.47,5.74-16,19.74l-37.12-11.64a68.85,68.85,0,0,1,25.73-37.12q19-14,51.22-14,24.29,0,42.77,7.93a53,53,0,0,1,27.42,26,55.46,55.46,0,0,1,5.91,19.66q1,10,1,21.85V290.23h-35.6V250.75l5.9,6.41Q1749,276.9,1732.5,286.1T1691.41,295.3Zm8.1-32.4q13.85,0,23.63-4.9a47.06,47.06,0,0,0,15.61-12,42,42,0,0,0,7.84-13.33,52,52,0,0,0,3.63-17.8q.42-10,.42-16.28l12.49,3.71q-18.39,2.87-31.56,5.06T1709,211.52a155,155,0,0,0-16.7,4.3,52,52,0,0,0-12,5.9,25.11,25.11,0,0,0-7.51,7.77,19.63,19.63,0,0,0-2.62,10.29,21.21,21.21,0,0,0,3.38,11.9,23.12,23.12,0,0,0,9.87,8.18Q1689.9,262.9,1699.51,262.9Z" transform="translate(0 -20.59)" style="fill:#ffffff"/><path d="M1815.94,371.23V108h35.94V235.9h5.06V371.23Zm87.91-75.93q-26.65,0-44.71-12.66T1832,248.13q-9.1-21.84-9.11-49,0-27.5,9.11-49.27t26.74-34.34q17.64-12.57,43.62-12.57,25.83,0,44.8,12.57a83.79,83.79,0,0,1,29.45,34.26Q1987,171.44,1987,199.11q0,27.34-10.29,49.11t-29,34.42Q1929,295.3,1903.85,295.3Zm-6.24-36.45q15.86,0,26.15-7.93A46.72,46.72,0,0,0,1939,229.4a87.68,87.68,0,0,0,5-30.29A85.59,85.59,0,0,0,1939,169a46.78,46.78,0,0,0-15.69-21.6q-10.63-8-27-8-15.52,0-25.31,7.51t-14.43,20.92q-4.63,13.42-4.64,31.3t4.64,31.22q4.63,13.5,14.68,21T1897.61,258.85Z" transform="translate(0 -20.59)" style="fill:#ffffff"/><polygon points="209.29 81.11 137.34 81.11 173.17 44.99 209.29 81.11" style="fill:#069a49"/><polygon points="103.37 81.11 91.78 92.79 80.1 81.11 103.37 81.11" style="fill:#069a49"/><polygon points="176.57 214.38 147.63 243.56 118.45 214.38 176.57 214.38" style="fill:#069a49"/><polygon points="106.78 107.79 76.9 107.79 91.78 92.79 106.78 107.79" style="fill:#069a49"/><polygon points="80.1 81.11 14.7 81.11 47.27 48.27 80.1 81.11" style="fill:#069a49"/><polygon points="309.16 214.38 280.36 243.42 251.31 214.38 309.16 214.38" style="fill:#069a49"/><polygon points="110.68 73.74 103.37 81.11 80.1 81.11 47.27 48.27 66.17 29.23 110.68 73.74" style="fill:#069a49"/><polygon points="156.11 27.93 110.68 73.74 66.17 29.23 95.15 0 128.18 0 156.11 27.93" style="fill:#069a49"/><polygon points="280.36 243.42 261.46 262.47 218.98 219.99 224.55 214.38 251.31 214.38 280.36 243.42" style="fill:#069a49"/><polygon points="251.31 214.38 224.55 214.38 237.88 200.94 251.31 214.38" style="fill:#069a49"/><polygon points="183.82 0 156.11 27.93 128.18 0 183.82 0" style="fill:#069a49"/><polygon points="323.99 195.81 323.99 199.44 309.16 214.38 251.31 214.38 237.88 200.94 252.6 186.1 314.28 186.1 323.99 195.81" style="fill:#069a49"/><polygon points="283.31 155.13 252.6 186.1 223.03 186.1 213.79 176.85 259.23 131.05 283.31 155.13" style="fill:#069a49"/><polygon points="314.28 186.1 252.6 186.1 283.31 155.13 314.28 186.1" style="fill:#069a49"/><polygon points="252.6 186.1 237.88 200.94 223.03 186.1 252.6 186.1" style="fill:#069a49"/><polygon points="259.23 131.05 213.79 176.85 144.73 107.79 235.97 107.79 259.23 131.05" style="fill:#069a49"/><polygon points="317.95 71.84 308.77 81.11 209.29 81.11 173.17 44.99 217.79 0 246.11 0 317.95 71.84" style="fill:#069a49"/><polygon points="323.99 77.88 323.99 81.11 308.77 81.11 317.95 71.84 323.99 77.88" style="fill:#069a49"/><polygon points="91.78 92.79 76.9 107.79 11.86 107.79 0 95.93 14.7 81.11 80.1 81.11 91.78 92.79" style="fill:#069a49"/><polygon points="76.9 107.79 44.51 140.45 11.86 107.79 76.9 107.79" style="fill:#069a49"/><polygon points="108.84 109.84 61.57 157.5 44.51 140.45 76.9 107.79 106.78 107.79 108.84 109.84" style="fill:#069a49"/><polygon points="185.09 186.1 90.17 186.1 61.57 157.5 108.84 109.84 185.09 186.1" style="fill:#069a49"/><polygon points="147.63 243.56 98.58 293.01 80.13 293.01 3.33 216.21 5.15 214.38 118.45 214.38 147.63 243.56" style="fill:#069a49"/><polygon points="261.46 262.47 231.17 293.01 197.08 293.01 171.71 267.65 218.98 219.99 261.46 262.47" style="fill:#069a49"/><polygon points="197.08 293.01 146.56 293.01 171.71 267.65 197.08 293.01" style="fill:#069a49"/></g></g></svg>